{"title":"The Killing-720p MP4 AAC x264 BRRip 1956-CC","uid":7298939,"size":1917575294,"categoryP":"video","categoryS":"hd___movies","magnet":"?xt=urn:btih:0fd8524c123b790a6efbaa0d7abf7d5438643382&amp;dn=The+Killing-720p+MP4+AAC+x264+BRRip+1956-CC&amp;tr=udp%3A%2F%2Ftracker.openbittorrent.com%3A80&amp;tr=udp%3A%2F%2Fopen.demonii.com%3A1337&amp;tr=udp%3A%2F%2Ftracker.coppersurfer.tk%3A6969&amp;tr=udp%3A%2F%2Fexodus.desync.com%3A6969","seeders":0,"leechers":1,"uploader":"Caveman44","files":-1,"time":1337975414,"description":"Source: The.Killing.1956.720p.BluRay.X264-AMIABLE\n\nSubs: Bosnian, Brazilian, Chinese, Dutch, English, French, Italian, Polish, Romanian, Spanish and Turkish.\n\nSample and Screens included.\n\nGeneral\nComplete name                    : The Killing-720p MP4 AAC x264 BRRip 1956-CC.mp4\nFormat                           : MPEG-4\nFormat profile                   : Base Media\nCodec ID                         : isom\nFile size                        : 1.76 GiB\nDuration                         : 1h 24mn\nOverall bit rate                 : 2 987 Kbps\nEncoded date                     : UTC 2012-05-24 10:29:08\n\nVideo\nID                               : 1\nFormat                           : AVC\nFormat/Info                      : Advanced Video Codec\nFormat profile                   : &lt;a class=&quot;__cf_email__&quot; href=&quot;/cdn-cgi/l/email-protection&quot; data-cfemail=&quot;8fc7e6e8e7cfc3bca1be&quot;&gt;[email&amp;#160;protected]&lt;/a&gt;&lt;script cf-hash='f9e31' type=&quot;text/javascript&quot;&gt;\n/* &lt;![CDATA[ */!function(){try{var t=&quot;currentScript&quot;in document?document.currentScript:function(){for(var t=document.getElementsByTagName(&quot;script&quot;),e=t.length;e--;)if(t[e].getAttribute(&quot;cf-hash&quot;))return t[e]}();if(t&amp;&amp;t.previousSibling){var e,r,n,i,c=t.previousSibling,a=c.getAttribute(&quot;data-cfemail&quot;);if(a){for(e=&quot;&quot;,r=parseInt(a.substr(0,2),16),n=2;a.length-n;n+=2)i=parseInt(a.substr(n,2),16)^r,e+=String.fromCharCode(i);e=document.createTextNode(e),c.parentNode.replaceChild(e,c)}}}catch(u){}}();/* ]]&gt; */&lt;/script&gt;\nFormat settings, CABAC           : Yes\nFormat settings, ReFrames        : 5 frames\nCodec ID                         : avc1\nCodec ID/Info                    : Advanced Video Coding\nDuration                         : 1h 24mn\nBit rate mode                    : Variable\nBit rate                         : 2 887 Kbps\nMaximum bit rate                 : 14.4 Mbps\nWidth                            : 1 200 pixels\nHeight                           : 720 pixels\nDisplay aspect ratio             : 1.667\nFrame rate mode                  : Variable\nFrame rate                       : 23.976 fps\nMinimum frame rate               : 19.133 fps\nMaximum frame rate               : 25.000 fps\nResolution                       : 24 bits\nColorimetry                      : 4:2:0\nScan type                        : Progressive\nBits/(Pixel*Frame)               : 0.139\nStream size                      : 1.69 GiB (96%)\nWriting library                  : x264 core 112\n\nAudio\nID                               : 2\nFormat                           : AAC\nFormat/Info                      : Advanced Audio Codec\nFormat version                   : Version 4\nFormat profile                   : LC\nFormat settings, SBR             : No\nFormat settings, PS              : Yes\nCodec ID                         : 40\nDuration                         : 1h 24mn\nBit rate mode                    : Variable\nBit rate                         : 105 Kbps\nMaximum bit rate                 : 133 Kbps\nChannel(s)                       : 2 channels\nChannel positions                : Front: L R\nSampling rate                    : 48.0 KHz\nResolution                       : 16 bits\nStream size                      : 63.4 MiB (4%)\nLanguage                         : English\n\nEnjoy...\n\nRequested by DreamExtractor.","torrent":{"xt":"urn:btih:0fd8524c123b790a6efbaa0d7abf7d5438643382","amp;dn":"The+Killing-720p+MP4+AAC+x264+BRRip+1956-CC","amp;tr":["udp%3A%2F%2Ftracker.openbittorrent.com%3A80","udp%3A%2F%2Fopen.demonii.com%3A1337","udp%3A%2F%2Ftracker.coppersurfer.tk%3A6969","udp%3A%2F%2Fexodus.desync.com%3A6969"],"infoHash":"0fd8524c123b790a6efbaa0d7abf7d5438643382","infoHashBuffer":{"type":"Buffer","data":[15,216,82,76,18,59,121,10,110,251,170,13,122,191,125,84,56,100,51,130]},"announce":[],"urlList":[]}}